<?xml version="1.0" encoding="UTF-8" standalone="no"?>
<!-- Created with Inkscape (http://www.inkscape.org/) -->

<svg
   width="72.299133mm"
   height="83.749641mm"
   viewBox="0 0 72.299133 83.749641"
   version="1.1"
   id="svg5"
   xml:space="preserve"
   inkscape:version="1.2.2 (b0a8486541, 2022-12-01)"
   sodipodi:docname="urunc-logo-clean.svg"
   inkscape:export-filename="urunc-logo-clean.png"
   inkscape:export-xdpi="96"
   inkscape:export-ydpi="96"
   xmlns:inkscape="http://www.inkscape.org/namespaces/inkscape"
   xmlns:sodipodi="http://sodipodi.sourceforge.net/DTD/sodipodi-0.dtd"
   xmlns="http://www.w3.org/2000/svg"
   xmlns:svg="http://www.w3.org/2000/svg"><sodipodi:namedview
     id="namedview7"
     pagecolor="#ffffff"
     bordercolor="#666666"
     borderopacity="1.0"
     inkscape:showpageshadow="2"
     inkscape:pageopacity="0.0"
     inkscape:pagecheckerboard="0"
     inkscape:deskcolor="#d1d1d1"
     inkscape:document-units="mm"
     showgrid="false"
     inkscape:zoom="0.5"
     inkscape:cx="-34"
     inkscape:cy="406"
     inkscape:window-width="1920"
     inkscape:window-height="1043"
     inkscape:window-x="1920"
     inkscape:window-y="0"
     inkscape:window-maximized="1"
     inkscape:current-layer="layer1" /><defs
     id="defs2" /><g
     inkscape:label="Layer 1"
     inkscape:groupmode="layer"
     id="layer1"
     inkscape:export-filename="urunc-export.png"
     inkscape:export-xdpi="220"
     inkscape:export-ydpi="220"
     transform="translate(-68.049593,-100.03742)"><g
       id="g883"
       transform="translate(0.50350426)"><path
         style="display:inline;fill:#0e97a5;fill-opacity:1;stroke-width:0.147101"
         d="m 93.474253,154.56603 c -1.875273,-0.19601 -4.020343,-0.66783 -5.936624,-1.30577 -1.839101,-0.61224 -4.817512,-1.98585 -4.817512,-2.22178 0,-0.20219 5.199254,-11.1626 5.292096,-11.15613 0.04242,0.003 0.257387,0.29019 0.477741,0.6383 1.124577,1.77659 6.613504,8.02563 10.538068,11.0471 1.858508,1.43085 3.159178,2.69779 3.159178,2.69779 0.0168,0.0128 -1.42548,0.18014 -2.831982,0.30849 -1.999961,0.1825 -4.085636,0.17967 -5.880965,-0.008 z m -14.743016,-5.93159 c -2.189881,-1.64354 -4.953014,-4.80573 -6.288387,-7.19658 -0.373936,-0.66949 -0.377928,-0.70106 -0.113602,-0.89825 0.150674,-0.11241 2.787045,-2.3761 5.858615,-5.03041 3.071564,-2.65432 5.629199,-4.84203 5.683639,-4.86158 0.05443,-0.0196 0.246218,0.49309 0.426175,1.13922 0.179958,0.64612 0.698797,2.11264 1.152971,3.25893 l 0.82578,2.08416 -0.921174,1.92515 c -1.699347,3.55143 -5.159658,10.45663 -5.258627,10.4938 -0.05387,0.0202 -0.668295,-0.39127 -1.36539,-0.91444 z m 30.908373,-1.29185 c 0,0 -6.43165,-2.21504 -8.95073,-3.65942 -5.920079,-3.39441 -10.229527,-7.98855 -12.677357,-13.51486 -1.159964,-2.61879 -1.71021,-4.53575 -1.861384,-6.48478 l -0.08653,-1.11558 0.939299,-0.51735 c 3.083751,-1.69845 4.065504,-2.57285 7.484445,-6.66595 3.866966,-4.62947 6.193297,-6.64534 9.005657,-7.80381 1.80063,-0.74171 1.82747,-0.73349 1.91212,0.58556 0.0892,1.38926 0.60722,2.45829 1.68552,3.47811 1.02221,0.96676 1.89481,1.34605 3.28446,1.42767 1.74345,0.10239 3.06144,-0.41364 3.53043,-1.38226 l 0.22065,-0.45572 1.30369,1.11498 c 1.81897,1.55567 4.41932,4.30842 5.43509,5.75364 l 0.85473,1.21609 -0.48698,-0.0905 c -3.1669,-0.58859 -6.187,-0.77774 -8.65109,-0.54185 -1.01132,0.0968 -1.89459,0.23043 -1.96282,0.29691 -0.0682,0.0665 0.20794,0.16654 0.61371,0.22235 1.02621,0.14114 2.39408,0.82343 3.09142,1.542 1.6246,1.67404 1.3357,4.76214 -0.65883,7.04218 -1.09338,1.2499 -3.40593,2.57119 -5.05521,2.88831 l -0.51485,0.099 0.51485,-0.40996 c 1.96369,-1.56361 2.95713,-3.65654 2.51451,-5.29743 -0.12696,-0.47065 -0.84437,-1.62967 -1.55927,-2.51907 -0.0185,-0.023 -0.91945,-0.13656 -2.00219,-0.25243 -2.33116,-0.24946 -3.36633,-0.50315 -4.64036,-1.13721 -1.78943,-0.89057 -3.143102,-2.37779 -3.873889,-4.25607 l -0.388119,-0.99755 -0.186718,0.72853 c -0.366102,1.42846 -1.846201,3.239 -3.930069,4.80749 -1.085274,0.81687 -3.141883,1.95805 -3.528751,1.95805 -0.121608,0 0.218786,0.37319 0.756434,0.82931 2.103883,1.78485 5.167919,5.56555 6.421292,7.9232 l 0.782015,1.47101 3.413145,1.12317 c 2.97671,0.97955 5.54152,1.79635 5.6087,1.83144 0.53043,1.41117 -0.60883,2.53739 -0.14982,3.95914 0.64609,1.92243 2.29834,6.91025 2.29834,6.91025 z M 70.100032,136.16852 c -1.486081,-4.50559 -1.856142,-8.94971 -1.127395,-13.53914 l 0.251099,-1.58133 h 0.429011 c 0.235954,0 2.163866,0.26146 4.284245,0.58103 5.054774,0.76183 8.242847,1.18417 8.938664,1.18417 0.309432,0 0.606777,0.0715 0.660767,0.15884 0.05398,0.0874 0.05032,1.08268 -0.0081,2.21184 l -0.106296,2.053 -6.248224,5.32709 c -3.436521,2.9299 -6.299802,5.34627 -6.362838,5.36972 -0.06304,0.0235 -0.382948,-0.77091 -0.710899,-1.76522 z m 11.51683,-16.75091 c -0.485436,-0.068 -3.199449,-0.43 -6.031145,-0.80455 -2.831695,-0.37455 -5.227514,-0.70453 -5.324042,-0.73329 -0.296744,-0.0884 1.060445,-3.24153 2.27698,-5.29003 1.324232,-2.22985 3.94736,-5.2137 5.989085,-6.81267 5.560108,-4.3544 12.917291,-6.402787 19.93219,-5.54953 2.89306,0.35189 5.52721,1.06203 7.7228,2.08196 l 0.88261,0.41001 -0.51485,0.14011 c -2.98106,0.81128 -5.69576,2.05245 -7.829309,3.57957 -0.65692,0.4702 -1.975648,1.63336 -2.930514,2.5848 -1.479454,1.47415 -2.619197,2.82632 -6.415343,7.61102 -0.288856,0.36408 -0.861869,0.9351 -1.273355,1.26893 -1.833102,1.48716 -3.64813,1.9108 -6.485107,1.51367 z m 28.290548,-8.43278 c -2.41857,-0.64336 -3.3765,-3.54075 -1.83826,-5.56008 1.58247,-2.07742 4.75229,-1.81263 5.92147,0.49465 1.39065,2.74431 -1.11653,5.8546 -4.08321,5.06543 z"
         id="path437-7-5-3"
         sodipodi:nodetypes="ssscsscssssssscsscssscssscssssssscsscssssssscsssssscssssscsccccsscssssccssssssssssscssssssssss" /><path
         id="path439-1"
         style="fill:#f13f26;stroke-width:0.145744"
         d="m 138.7691,116.66167 c -0.0512,0 -2.01173,0.89449 -4.35695,1.98775 -2.34522,1.09327 -5.64143,2.62664 -7.32477,3.40762 -4.05934,1.88333 -7.36309,3.44936 -7.44063,3.5269 -0.0345,0.0345 0.73024,0.67586 1.69911,1.42527 l 1.76145,1.36265 -0.34187,0.25903 c -0.49083,0.37187 -3.75625,2.29412 -5.29717,3.11841 -1.19204,0.63768 -4.20799,2.43112 -7.08993,4.21577 -0.37374,0.19996 -0.84195,0.5763 -1.18477,0.71041 0.004,0.002 0.0142,0.0375 0.0157,0.0383 0.52553,1.39814 -0.60337,2.51392 -0.14859,3.92256 0.6396,1.90312 2.27284,6.83273 2.27554,6.84086 0.4864,0.13371 1.88382,0.37538 2.85652,0.50413 2.60775,0.34517 2.36249,0.33456 3.49302,0.15115 1.99124,-0.32306 5.57537,-2.65964 8.37629,-5.46056 1.33297,-1.33298 3.93934,-4.5625 3.79703,-4.7048 -0.0293,-0.0293 -0.5993,0.19358 -1.26672,0.49501 -1.59542,0.72058 -8.66796,3.69197 -9.23282,3.87902 -0.40843,0.13524 -0.56022,0.0649 -2.07913,-0.96157 -0.90124,-0.60907 -1.74145,-1.10731 -1.86706,-1.10731 -0.12562,0 -0.20319,-0.0754 -0.1725,-0.16738 0.063,-0.18914 3.02963,-1.95032 9.22314,-5.47536 5.37482,-3.0591 8.67177,-5.02767 8.67177,-5.1779 0,-0.0647 -0.91642,-0.72176 -2.03643,-1.46029 l -2.03614,-1.34301 4.12609,-4.15513 c 4.30535,-4.33572 5.73648,-5.83147 5.57982,-5.83147 z"
         sodipodi:nodetypes="ssssccsscccccssssssssssscccss" /></g><text
       xml:space="preserve"
       style="font-style:normal;font-variant:normal;font-weight:normal;font-stretch:normal;font-size:27.4589px;line-height:1.25;font-family:cf;-inkscape-font-specification:cf;text-align:center;letter-spacing:0px;word-spacing:0px;text-anchor:middle;fill:#0e97a5;fill-opacity:1;stroke:none;stroke-width:0.147101"
       x="103.78726"
       y="183.51247"
       id="text1627-9"><tspan
         sodipodi:role="line"
         id="tspan1625-4"
         style="font-style:normal;font-variant:normal;font-weight:normal;font-stretch:normal;font-size:27.4589px;font-family:'CF Asty Std';-inkscape-font-specification:'CF Asty Std';text-align:center;text-anchor:middle;fill:#ffffff;fill-opacity:1;stroke-width:0.147101"
         x="103.78726"
         y="183.51247">urunc</tspan></text></g></svg>
