<?xml version="1.0" encoding="UTF-8" standalone="no"?>
<!-- Created with Inkscape (http://www.inkscape.org/) -->

<svg
   width="196.63393mm"
   height="54.671448mm"
   viewBox="0 0 196.63393 54.671448"
   version="1.1"
   id="SVGRoot"
   xmlns="http://www.w3.org/2000/svg"
   xmlns:svg="http://www.w3.org/2000/svg">
  <defs
     id="defs16104" />
  <g
     id="layer1"
     transform="translate(-67.663527,-131.65789)">
    <g
       id="g14119-6-7"
       transform="matrix(0.55597242,0,0,0.55597242,193.12218,95.676768)"
       style="display:inline">
      <path
         style="display:inline;fill:#15616d;fill-opacity:1;stroke-width:0.264583"
         d="m -180.93555,162.79536 c -3.37296,-0.35257 -7.23119,-1.2012 -10.67791,-2.34863 -3.3079,-1.10121 -8.66502,-3.57186 -8.66502,-3.99621 0,-0.36367 9.35164,-20.07761 9.51863,-20.06598 0.0763,0.005 0.46295,0.52196 0.85929,1.14809 2.02272,3.19546 11.89538,14.43529 18.9543,19.86987 3.34281,2.57359 5.68226,4.85237 5.68226,4.85237 0.0303,0.023 -2.56395,0.32402 -5.09375,0.55487 -3.59723,0.32826 -7.34863,0.32317 -10.5778,-0.0144 z m -26.51753,-10.66887 c -3.93883,-2.95614 -8.90874,-8.64382 -11.31061,-12.94412 -0.67258,-1.20418 -0.67976,-1.26097 -0.20433,-1.61565 0.27101,-0.20218 5.01292,-4.27376 10.5376,-9.04795 5.52467,-4.77419 10.12496,-8.70912 10.22288,-8.74428 0.0979,-0.0352 0.44286,0.88691 0.76654,2.04906 0.32368,1.16214 1.25689,3.7999 2.07379,5.86167 l 1.48529,3.74868 -1.65687,3.46268 c -3.05653,6.38778 -9.28042,18.80782 -9.45843,18.87467 -0.0969,0.0364 -1.20203,-0.70375 -2.45586,-1.64476 z m 55.59335,-2.32359 c 0,0 -11.56829,-3.98408 -16.09922,-6.582 -10.64816,-6.10536 -18.39935,-14.36862 -22.80214,-24.30852 -2.08637,-4.71028 -3.07607,-8.15822 -3.34798,-11.66384 l -0.15564,-2.00655 1.68947,-0.93052 c 5.54659,-3.05493 7.31242,-4.627658 13.4619,-11.989713 6.95532,-8.326805 11.13958,-11.952654 16.19803,-14.036327 3.2387,-1.334085 3.28698,-1.3193 3.43924,1.053203 0.16036,2.498799 1.09218,4.421621 3.03166,6.255905 1.83859,1.738866 3.40809,2.421083 5.9076,2.567882 3.13585,0.184169 5.50646,-0.743984 6.35,-2.486191 l 0.39687,-0.819685 2.34488,2.005449 c 3.27169,2.798106 7.94881,7.749349 9.77583,10.348785 l 1.53737,2.187337 -0.87592,-0.16279 c -5.69613,-1.058656 -11.12825,-1.398887 -15.56028,-0.974593 -1.81901,0.174141 -3.4077,0.414457 -3.53042,0.534035 -0.12273,0.119578 0.37401,0.299545 1.10385,0.399923 1.84578,0.25386 4.3061,1.48107 5.56038,2.77352 2.92209,3.01101 2.40245,8.56544 -1.185,12.66643 -1.96661,2.24813 -6.12608,4.62466 -9.09256,5.19506 l -0.92604,0.17806 0.92604,-0.73737 c 3.53199,-2.81239 5.31884,-6.57684 4.52272,-9.52823 -0.22835,-0.84654 -1.51873,-2.9312 -2.80458,-4.53093 -0.0332,-0.0413 -1.65376,-0.24562 -3.60124,-0.45402 -4.19295,-0.4487 -6.05485,-0.90499 -8.34639,-2.04545 -3.21856,-1.60183 -5.65334,-4.27681 -6.96777,-7.655174 l -0.69809,-1.794251 -0.33584,1.310362 c -0.65849,2.5693 -3.32067,5.825833 -7.06882,8.647003 -1.95203,1.46926 -5.65115,3.52185 -6.34699,3.52185 -0.21873,0 0.39352,0.67124 1.36056,1.49164 3.78415,3.21032 9.29528,10.01048 11.54966,14.25107 l 1.40657,2.64583 6.13906,2.02019 c 5.35406,1.76187 9.96725,3.231 10.08809,3.29412 0.95406,2.53819 -1.09508,4.56387 -0.26947,7.12111 1.16209,3.45777 4.13391,12.42912 4.13391,12.42912 z m -71.11787,-20.09823 c -2.67294,-8.10398 -3.33855,-16.0974 -2.02779,-24.35218 l 0.45164,-2.84427 h 0.77164 c 0.4244,0 3.89204,0.47028 7.70586,1.04508 9.09177,1.37026 14.826,2.12991 16.07753,2.12991 0.55656,0 1.09138,0.12856 1.18849,0.28569 0.0971,0.15713 0.0905,1.94737 -0.0146,3.97832 l -0.19119,3.69263 -11.23837,9.58158 c -6.1811,5.26986 -11.33114,9.61607 -11.44452,9.65824 -0.11339,0.0422 -0.68879,-1.38659 -1.27866,-3.175 z m 20.71475,-30.129041 c -0.87313,-0.122224 -5.75469,-0.773419 -10.84792,-1.447101 -5.09323,-0.673682 -9.40247,-1.267198 -9.57609,-1.31893 -0.53374,-0.159027 1.90737,-5.830382 4.09549,-9.514924 2.38183,-4.01071 7.09992,-9.377613 10.77227,-12.25361 10.00069,-7.832032 23.23369,-11.516367 35.85104,-9.98166 5.2036,0.632939 9.94151,1.91022 13.89062,3.74473 l 1.5875,0.737452 -0.92604,0.252018 c -5.36187,1.459209 -10.24468,3.691633 -14.08218,6.438386 -1.18157,0.845725 -3.5535,2.937849 -5.27097,4.649158 -2.66102,2.651485 -4.71102,5.083561 -11.53896,13.689567 -0.51955,0.654844 -1.5502,1.681904 -2.29032,2.282357 -3.29711,2.674884 -6.56171,3.436858 -11.66444,2.722557 z m 50.88481,-15.167614 c -4.35016,-1.15719 -6.07314,-6.368577 -3.3064,-10.000652 2.84631,-3.736541 8.54771,-3.260272 10.65067,0.889709 2.50129,4.936056 -2.00826,10.530379 -7.34427,9.110943 z"
         id="path437-7-5-7-8" />
      <path
         id="path439-5-4"
         style="fill:#ff7d00;fill-opacity:1;stroke-width:0.262142"
         d="m -99.465966,94.618658 c -0.092,0 -3.618394,1.60887 -7.836614,3.57527 -4.21823,1.966402 -10.14696,4.724402 -13.17471,6.129122 -7.30133,3.38745 -13.24362,6.20418 -13.38309,6.34365 -0.062,0.062 1.31345,1.21564 3.0561,2.56357 l 3.16824,2.45093 -0.6149,0.46591 c -0.88284,0.66886 -6.75619,4.12631 -9.52776,5.60893 -2.14406,1.14696 -7.56871,4.37272 -12.75231,7.58268 -0.67223,0.35966 -1.51438,1.03657 -2.13099,1.27778 0.007,0.003 0.0255,0.0674 0.0282,0.0688 0.94526,2.51477 -1.08525,4.52167 -0.26726,7.05532 1.15042,3.42305 4.08806,12.2897 4.0929,12.30431 0.87487,0.2405 3.38835,0.67519 5.13789,0.90675 4.69042,0.62084 4.2493,0.60177 6.28272,0.27187 3.58154,-0.58107 10.02814,-4.78375 15.06602,-9.82164 2.39755,-2.39755 7.08549,-8.20633 6.82953,-8.46229 -0.0527,-0.0527 -1.07793,0.34818 -2.27839,0.89036 -2.86961,1.29607 -15.59063,6.64056 -16.60662,6.97699 -0.73461,0.24326 -1.00764,0.11677 -3.73963,-1.72953 -1.62101,-1.0955 -3.13225,-1.99166 -3.35818,-1.99166 -0.22595,0 -0.36546,-0.13553 -0.31027,-0.30106 0.11339,-0.34019 5.44925,-3.50794 16.58921,-9.84826 9.66742,-5.50224 15.59748,-9.04302 15.59748,-9.31322 0,-0.11634 -1.64832,-1.29819 -3.66282,-2.62656 l -3.66232,-2.4156 7.4214,-7.47362 c 7.74382,-7.798442 10.317924,-10.488772 10.036154,-10.488772 z" />
    </g>
    <g
       aria-label="urunc"
       transform="matrix(0.96204627,0,0,0.96204627,105.30819,-52.204941)"
       id="text1627-3-5"
       style="font-size:49.3889px;line-height:1.25;font-family:cf;-inkscape-font-specification:cf;text-align:center;letter-spacing:0px;word-spacing:0px;text-anchor:middle;display:inline;fill:#001524;fill-opacity:1;stroke-width:0.264583">
      <path
         d="m 42.834866,224.58852 c 0,6.223 3.951112,9.68023 8.692447,9.68023 2.913945,0 5.235223,-1.08656 6.914446,-3.06212 h 0.09878 v 2.56823 h 7.507113 v -25.18834 h -7.507113 v 14.12522 c 0,3.30906 -1.778001,5.03767 -4.148668,5.03767 -2.173112,0 -4.148668,-1.62983 -4.148668,-4.93889 v -14.224 h -7.408335 z"
         style="fill:#001524;fill-opacity:1"
         id="path14054-5-0" />
      <path
         d="m 70.515281,233.77486 h 7.457724 v -13.48317 c 0,-4.34623 1.778,-5.87728 4.741334,-5.87728 0.987778,0 2.321278,0.0988 3.407834,0.4445 l 0.395111,-6.71689 c -0.296333,0 -0.691444,-0.0494 -0.938389,-0.0494 -3.951112,0 -6.27239,1.43228 -7.507113,3.06211 h -0.09878 v -2.56822 h -7.457724 z"
         style="fill:#001524;fill-opacity:1"
         id="path14056-6-3" />
      <path
         d="m 89.269593,224.58852 c 0,6.223 3.951112,9.68023 8.692447,9.68023 2.91394,0 5.23522,-1.08656 6.91445,-3.06212 h 0.0988 v 2.56823 h 7.50712 v -25.18834 h -7.50712 v 14.12522 c 0,3.30906 -1.778,5.03767 -4.14866,5.03767 -2.173116,0 -4.148672,-1.62983 -4.148672,-4.93889 v -14.224 h -7.408335 z"
         style="fill:#001524;fill-opacity:1"
         id="path14058-2-6" />
      <path
         d="m 115.99821,208.58652 v 25.18834 h 7.45772 v -14.12523 c 0,-3.35844 1.778,-5.08706 4.14867,-5.08706 2.17311,0 4.14867,1.67923 4.14867,4.98828 v 14.22401 h 7.45772 v -16.00201 c 0,-6.27239 -4.0005,-9.68022 -8.74183,-9.68022 -2.91395,0 -5.23523,1.08655 -6.91445,3.06211 h -0.0988 v -2.56822 z"
         style="fill:#001524;fill-opacity:1"
         id="path14060-9-1" />
      <path
         d="m 160.47084,225.23058 c -1.58045,1.67922 -2.96334,2.51883 -5.18584,2.51883 -3.40783,0 -5.87728,-2.37067 -5.87728,-6.56872 0,-4.04989 2.37067,-6.61812 5.72912,-6.61812 2.02494,0 3.556,0.83962 5.03766,2.42006 l 4.84012,-4.59317 c -2.32128,-2.61761 -5.334,-4.29683 -10.02595,-4.29683 -7.60589,0 -13.03867,5.43278 -13.03867,13.08806 0,7.75405 5.48217,13.08806 12.93989,13.08806 4.98828,0 7.95162,-1.92617 10.37167,-4.59317 z"
         style="fill:#001524;fill-opacity:1"
         id="path14062-1-0" />
    </g>
  </g>
</svg>
